<?xml version="1.0" encoding="UTF-8"?>
<svg id="Layer_2" data-name="Layer 2" xmlns="http://www.w3.org/2000/svg" viewBox="0 0 493.88 158.21">
  <defs>
    <style>
      .cls-1 {
        fill: #010101;
        stroke-width: 0px;
      }
    </style>
  </defs>
  <g id="Layer_1-2" data-name="Layer 1">
    <g id="Shape_1" data-name="Shape 1">
      <path class="cls-1" d="M449.4,152.27l-1.81-4.14-3.97-2.3-4.53-6.04-7.37-1.44-6.23-4.31-11.05-1c-.38-3.28-.9-6.67-.96-9.52,2.14-.23,1.73-.72,1.64-2.07-.03-.26-1.15-.2-1.19-.44-.37-2.25-.71-4.25-.98-6.55.1-.17.48-.5.54-.67.36-.93-1.24-1.31-2.91-1.05-1.91.51-4.05,1.14-5.96,1.65-5.64.35-10.98.79-16.62,1.14-5.19-10.43-9.51-19.27-14.7-29.7,2.46-.18,5.11-.45,7.97-.92-.4-5.44-.66-10.39-1.84-15.84-4.72-3.65-12.11-9.66-15.11-11.37-.81-.46-4.53-1.23-7.38-1.73-.32-1.05-.39-2-.71-3.05.82-.17,1.84,0,2.36-.52.01-1.18-.06-2.11-.04-3.29,0-.49-2.36-.46-3.22-.47-.85-8.92-2.48-17.59-3.32-26.51.83-6.03.29-7.27-1.32-7.82.08-1.38-.52-4.18-.79-5.56-.41-1.59-3.6-1.73-5.83-2.6-3.58,1.18-8.64,2.36-12.21,3.54-3.4-1.14-5.33-1.83-8.72-2.97-9.27.61-18.64.73-27.92,1.34-5.39,1.99-15.41,5.13-15.78,6.46-1.04,6.67-3.06,13.29-3.9,20.01-7.01-.25-13.72-.31-20.73-.56-.05-1.96-.05-4.23-.1-6.19,0-.6-.51-.81-.9-.94.19-7.79.06-14.85.26-22.65.03-4.34-7.32-6.19-7.36-1.24,0,1.26.79,1.97,1.8,2.57.14,6.49-.36,14.39-.22,20.88-.25.9-.75.7-1.02,1.69.05,2.03-.07,3.69-.02,5.72-7.08.82-12.12-.88-19.27.22-4.23.65-12.7,2.6-12.74,7.58-.06,7.21-1.09,13.32-1.15,20.53-4.68.42-5.57,1.47-5.62,7.86-9.44.19-28.9.33-31.75,1.07-14.45,4.34-24.6,5.76-39.34,10-3.13,1.43-7.13,3.8-11.07,5.54-2.45-1.69-3.89-1.86-5.11-1.27-1.03.5-2.06,2.22-1.66,4.56-.27.13-.63.12-.91.26.13,1.2-.47,2.75-.08,3.59.11.66,1.79,1.48,1.89,2.14,1.94,12.8,1.11,22.9-2.86,32.64l-2.11-1.77-12.76,1.15-6.23,4.31-7.37,1.44-4.53,6.04-3.97,2.3-23.51,8.6L0,158.21h493.88l-44.48-5.94ZM407.62,114.75c1.44-.25,2.89-.5,4.33-.75-.72.35-1.71.61-2.44.96.27,2.49.96,5.13,1.53,7.63.85-.39,2.27-.62,3.13-1.01.27-.07.81,1.07.36,1.33-2.61.62-7.54,2.79-7.97.77-.37-2.82-.4-5.29-.77-8.11-5.41.15-11.21.3-16.61.45,6.1-.47,12.34-.8,18.44-1.28ZM379.54,83.7c-2.61-.41-5.04-.83-7.65-1.24-2.33-4.74-5.8-9.96-9.7-15.51,5.2.89,10.4,1.79,15.6,2.68,1.12,4.69,1.43,9.38,1.75,14.07ZM363.12,57.8c4.97,3.69,9.59,7.23,14.55,10.93-10.95-2.19-21.32-4.37-32.28-6.55-3.6-4.03-8.56-8.06-13.27-12.1,4.27.97,8.53,1.94,12.8,2.91,10.32,5.02,8.49,3.74,8.82,2.82,3.3.98,6.07,1.01,9.37,1.99ZM358.16,50.79c.24.46.22.81-.06,1.13-2.92-.68-6-1.36-8.93-2.04-.05-.39-.09-.79-.14-1.18,3.04.7,6.08,1.39,9.12,2.09ZM345.58,7.67c.54,1.94.46,3.31.71,5.07,1.24.5,2.09,1.07,3.33,1.57,1.09,1.27,1.72,4.11,1.48,5.51,1.09,12.23,2.13,19.48,2.82,28.32-1.5-.36-2.21-.72-3.7-1.09-1.75-13.52-3.87-35.54-5.93-40.56.29.2.9.44,1.3,1.17ZM344.09,23.26c1.03,6.2,1.67,12.54,2.7,18.74-.24,1.8-.51,3.7-.76,5.5-.96.26-2.39.49-3.37.59-.5,0-.32.95-.36,1.59-2.65-.22-5.79-.93-8.44-1.15-.05-1.87,0-2.9-.06-4.77.01-1.57-1.39-2.1-2.14-2.7.62-.16,1.52-.09,1.68-.65.26-3.98-.01-8.5-3.95-9.71-.14-1.2-.28-2.39-.41-3.59,4.81-1.24,10.31-2.62,15.12-3.86ZM341.82,13.79l.47,2.36-15.68-5.44,5.04,38.46-.85,1.02-1.52-.15-5.01-42.34,17.54,6.09ZM296.93,9.09l.04-.21c8.78-.4,17.56-.94,26.35-1.21,1.68,14.52,3.38,27.87,5.06,42.39-2.13,8.47-5.3,17.66-7.73,25.83-.94,3.39-2.74,7-5.11,6.35-5.04-.56-9.1-.83-14.14-1.39-1.71.25-4.05.44-5.75.69-.5-6.69-1.15-13.52-1.85-20.31-.84-7.96-1.69-15.92-2.53-23.87.26-.2.56-.45.82-.66,1.58-8.91,3.11-17.76,4.69-26.67-5.82.33-11.11,2.65-16.56,4.4,5.42-2.1,10.63-4.62,16.73-5.34ZM278.21,84.32c4.94.61,9.88,1.23,14.82,1.84-.76.16-1.51.31-2.26.47-.02.26-.04.52-.06.79-4.03-.07-7.86-.13-11.89-.2.06-.97-.01-1.93-.62-2.9ZM266.19,85.91c-.1-.16-.19-.33-.29-.49,3.15.35,6.56.68,9.71,1.04.02.15.02.34-.08.48-3.05-.33-6.29-.69-9.34-1.02ZM269.39,96.65c-4.4.58-8.43,2.26-12.31,3.63.83-5.01,1.66-10.5,2.48-15.51,1.16-4.18,4.5-2.66,5.59,1.52,1.41,3.45,2.83,6.9,4.24,10.35ZM265.73,85.12c-.19-.3-.37-.61-.56-.91,3.38.41,6.99.83,10.37,1.24.13.27.08.55.08.84-3.3-.39-6.59-.77-9.89-1.16ZM246.92,80.01c-.14-2.62-.29-5.24-.43-7.86,12.64,1.68,25.28,3.56,37.91,5.25.24,2.36.44,4.77.68,7.13-12.74-1.42-25.43-3.09-38.17-4.51ZM248.33,106.98l-1.09,1.27-20.63-1.15-1.81,4.7.15-6.09,23.38,1.27ZM244.36,42.66c12.66,2.1,25.42,4.2,38.08,6.3.69,9.32,1.39,18.45,2.08,27.78-12.63-1.68-25.26-3.35-37.89-5.03-.63-9.69-1.45-19.24-2.27-29.05ZM278.2,85.06c.14.56.19,1.24.28,1.79-.52.09-.95-.06-1.47.04-.02-.72.06-1.39-.28-1.89.57.02.9.04,1.47.06ZM285.99,84.29l-3.72-44.45,8.54.85,3.62,40.98-.44.17.2,1.99,1.4-.06.03,1.75-9.65-1.23ZM290.6,37.69l.22,2.75-8.69-1-.08-2.36,8.54.61ZM288.48,35.48c.33-3.76.58-7.77.9-11.54.59.17,1.2.29,1.79.46-.49,3.73-1.46,7.47-1.95,11.2-.41.12-.51.25-.75-.12ZM282.24,20.69c.52.4,1.04.79,1.56,1.19-.23,4.36-.56,8.71-.79,13.06-1.28.07-2.12.09-3.17-.12.82-4.64,1.58-9.49,2.4-14.13ZM252.82,4.16c-.21,7.76-.25,14.93-.45,22.69-.43.05-1.12.06-1.52-.06.15-7.84.36-14.93.5-22.77,0-.93-1.41-1.81-2.09-2.6.87-.49,3.58.67,3.56,2.73ZM252.87,27.66c0,2.32-.05,4.55-.05,6.88-.64.07-1.29.13-2.06-.07.03-2.28.07-4.55.1-6.83.66.07,1.38.14,2.01.02ZM230.98,34.73c19.12.48,30.49.41,50.2,2.08l1.09,11.41c-12.49-2.26-26.37-4.14-38.86-6.41,2.32,20.79,2.68,41.16,2.45,61.34-6.42-.44-12.83-.89-19.25-1.34.77-21.68,1.29-43.5,2.05-65.18-.7-.28-1.11-.38-1.86-.6-1.54.87-1.29,1.84-1.31,4.46-3.08.76-6.22,1.82-9.31,2.58-1.32-4.95,7.49-8.73,14.81-8.33ZM210.31,75.47s0,.04,0,.06c.03.05.06.09.09.14.41.67.79,1.38,1.13,2.11l-58.37,10.32,57.14-12.63ZM122.07,86.81c1.44.01,1.83,2.22.52,2.56-1.26.32-2.23-2.12-.52-2.56ZM119.58,146.61l80.56,3.13c-1.31,2.01-2.72,3.96-4.22,5.82l-76.34-8.96ZM223.86,113.23c-.4,10.96-.81,21.91-1.25,32.76-.04,4.53-1.56,4.82-4.49,6.26-5.85,2.89-14.5,4.07-21.06,5.47-.32-.4-.55-.79-.87-1.19,20.88-25.48,24.2-67.16,14.92-82.27-.3-1.88.09-3.13-.21-5.01-.33-.2-.81.34-1.13.14-1.12-5.84,2.75-7.76,4.23-6.5,3.35,2.78,6.26,5.11,9.62,7.89,1.36,1.49,1.64,2.82,1.68,4.49-.5,12.38-.96,24.89-1.42,37.4l17.47.91-17.49-.33ZM286.9,154.51c-1.8-.14-3.65-.09-5.46-.09-1.68,0-3.42-.03-5.08-.28h-.04s-.03-.02-.03-.02c-3.14-1.82-5.35-4.33-7.47-7.22-.07-.1-.15-.2-.22-.3h0s0-.03,0-.03c-.01-.02-.03-.05-.04-.07h0s0-.03,0-.03c-.27-.85-.52-1.7-.75-2.56l-1.17.07-22.37-.8v-.37s22.26.38,22.26.38l.97-.41c-.38-1.48-.7-2.98-.95-4.48-.36-2.13-.59-4.41-.45-6.58,0-.09,0-.19,0-.28l-1.36-.42-22.13.46v-.37s22.09-.81,22.09-.81l1.38-.12c0-1.2.02-2.39.04-3.59.03-1.71.06-3.42.03-5.13h0s0-.03,0-.04h0s0-.02,0-.02c.07-.54.19-1.08.3-1.62.1-.48.21-.97.27-1.45l-.91-1-21.73,1.16-.02-.37,22.1-1.44.95.65c.48-1.08.97-2.16,1.46-3.24.6-1.33,1.21-2.67,1.8-4.01h0s0,0,0,0c0-.01,0-.02.02-.03h0s0,0,0,0c.27-.46.52-.92.76-1.39.2-.39.4-.77.62-1.15l-.27-.85-23.44,1.83-.03-.37,23.82-2.17.63.85c.96-.68,1.93-1.34,2.89-2.01,1.11-.76,2.21-1.53,3.31-2.3h.01s.01-.01.01-.01c.02-.01.04-.02.05-.03h.01s0,0,0,0c.14-.05.28-.11.42-.16v-.5s-22.74,2.17-22.74,2.17l-.04-.37,23.43-2.9.23,1.27c.95-.36,1.91-.7,2.87-1.05,1.32-.47,2.64-.95,3.95-1.45l.08-.99-21.31,2.23-.04-.37,21.79-2.57.35,1.37c.99-.37,1.99-.71,2.99-1.05,1.03-.35,2.06-.7,3.09-1.08l-.11-.68-21.4,2.06-.04-.37,21.87-2.39.42,1.07c1.02-.51,2.06-1,3.1-1.48,1.02-.47,2.04-.95,3.04-1.45l-.12-.75-20.56,2.39-.05-.37,21.06-2.76.38,1.2c1.02-.37,2.01-.83,2.98-1.28,1-.46,1.99-.93,3.03-1.3l-.1-.64-23.07,2.71-.05-.37,23.67-3.11.24,1.18c1.21-.39,2.44-.74,3.67-1.08.77-.22,1.55-.43,2.32-.66v-.82s-14.99,1.4-14.99,1.4l-.04-.37,15.61-1.86.27,1.4c.24-.07.48-.15.72-.23h0s0,0,0,0c.01,0,.02,0,.03,0h0c1.57-.3,3.15-.59,4.73-.87l.08-.95-6.89.63-.04-.37,7.42-1.02.53,1.52c1.08-.19,2.16-.38,3.24-.56.61-.11,1.22-.21,1.83-.32l.16-.97-5.32.59-.05-.37,5.98-.84.21,1.43c1.7-.3,3.4-.6,5.09-.92v-.87s-4.29.55-4.29.55l-.05-.37,4.82-.75.4,1.28.25-.05c1.57-.49,3.13-.99,4.69-1.51l-.03-.43-18.63,2.35-.05-.37,19.15-2.55.19.79c1.53-.51,3.06-1.04,4.59-1.57l-.1-.49-19.14,2.35-.05-.37,19.39-2.89.71,1.11c1.52-.53,3.04-1.07,4.57-1.61l-.1-1.03-19.81,2.69-.05-.37,20.35-3.03.58,1.4c1.4-.49,2.8-.99,4.2-1.48l-.09-.89-15.24,1.69-.04-.37,15.8-2.03.5,1.28c.48-.17.97-.33,1.45-.5h0s0,0,0,0c.01,0,.02,0,.03,0h.01c1.02-.22,2.07-.36,3.12-.34l-.04-.46-3.14.27-.04-.37,3.97-.51.13,1.12c1.43.14,2.73.58,3.96,1.34l1.51-.47.11,1.67c.73.62,1.41,1.29,2.08,1.97.57.57,1.14,1.14,1.74,1.68l.33.29-.24.28-.14-.12c-.06-.05-.13-.11-.18-.16h0c-4.11-3.6-7.11-6.56-12.95-5.32-2.5.86-4.99,1.74-7.48,2.62-5.1,1.8-10.2,3.6-15.37,5.2h-.01s-.02,0-.03,0h0s0,0,0,0c-3.02.58-6.04,1.1-9.06,1.62-3.01.52-6.02,1.04-9.01,1.61-1.29.43-2.59.79-3.9,1.16-1.3.37-2.6.73-3.88,1.15-1.16.38-2.27.9-3.37,1.41-1.13.53-2.26,1.05-3.44,1.45-1.09.55-2.2,1.07-3.31,1.58-1.11.52-2.22,1.04-3.32,1.59h0s-.02.01-.02.01h0c-1.21.47-2.44.89-3.66,1.31-1.22.41-2.43.83-3.63,1.29-1.38.54-2.78,1.04-4.17,1.54-1.37.49-2.74.99-4.1,1.51-1.08.77-2.18,1.53-3.27,2.28-1.08.74-2.16,1.49-3.23,2.25-.26.43-.49.87-.71,1.31-.24.49-.5.95-.77,1.42-.58,1.34-1.19,2.66-1.79,4-.6,1.31-1.2,2.63-1.77,3.95-.07.52-.18,1.04-.29,1.56-.11.5-.22,1.01-.28,1.52.03,1.71,0,3.41-.03,5.12-.03,1.71-.06,3.42-.03,5.14v.02h0c-.14,2.11.09,4.33.44,6.4.45,2.69,1.13,5.39,1.95,7.99.06.08.12.16.18.24,2.03,2.76,3.9,5.2,6.92,6.96,1.32.17,8.13.86,10.64,1.2h-.19ZM355.84,101.28c.66,6.71,4.45,12.18,8.48,12.21,1.47.01,2.76-.7,3.78-1.93-1.16,1.76-2.74,2.8-4.58,2.79-4.31-.03-8.38-5.89-9.08-13.08-.7-7.19,2.22-12.99,6.53-12.95,1.84.01,3.63,1.09,5.13,2.87-1.26-1.25-2.7-1.98-4.16-2-4.03-.03-6.76,5.38-6.1,12.09ZM310.21,108.23c1.16,0,2.17-.7,2.8-1.83-.66,1.34-1.79,2.2-3.12,2.19-2.25-.02-4.23-2.54-4.42-5.64-.19-3.09,1.49-5.59,3.74-5.57,1.33.01,2.56.89,3.39,2.25-.77-1.14-1.85-1.87-3.02-1.88-2.1-.02-3.67,2.31-3.5,5.2.18,2.89,2.02,5.25,4.13,5.27ZM306.08,97.27c-5.92,1.43-11.28,4.12-16.55,6.77-1.77.89-11.25,5.23-16.44,5.97,5.62-1.24,10.85-3.86,16.16-6.53,5.3-2.66,10.69-5.37,16.68-6.82,3.33-.8,6.86-1.36,10.41-1.91,6.25-.98,12.53-1.96,17.68-4.33.92-.43,1.84-.87,2.75-1.31,4.25-2.05,11.38-5.62,17.06-3.75-7.91-.7-11.91,1.96-16.79,4.32-.92.44-1.84.89-2.76,1.31-5.23,2.41-11.55,3.4-17.85,4.38-3.53.55-7.05,1.1-10.36,1.9ZM286,128.36l4.57,6.42-6.92-6.44.4-.49-6.63-6.74,14.61-8.43-12.83,8.84,6.81,6.83ZM362.73,138.82l-.27-2.26-66.35-.96-3.33,1.77-.25.74.03-.91,3.43-2.01,66.87.49-.13,3.14ZM362.39,127.14l-16.82-.36-15.44-6.29-33.41-1.13c-.48,0-1.18,14.62-1.65,14.6.12-5.57.67-11.13-1.14-16.71l36.94,1.18c4.31,1.67,10.13,5.17,14.44,6.85,6.11.12,12.21.23,18.32.35.57,4.41.43,9.11.65,13.34-.63-3.94-1.26-7.89-1.89-11.83ZM365.12,126.07l-.04,12.18-.59-12.73,8.31-.18-7.67.72ZM379.03,141.84c1.03-10.72,1.25-21.64-7.19-34.55,10.17,11.58,8.69,23.07,7.19,34.55ZM391.33,139.88l-2.82,4.25-1.14-.15c3.18-4.86,4.01-12.06,2.85-19.44,3.93-.36,7.42-.04,11.35-.25.6.17.18.57.83,1.04.95-.27,2.8-.78,3.64-1.25-.04.87.56,1.25.67,1.82.42,3.61.87,6.08,1.29,9.69-.09.49-.3,1.08-.56,1.72l-2.95,2.48-13.17.09ZM406.19,147.8c2.53-2.75,5.36-6.38,5.39-10.62-.42-3.97-.51-7.98-.93-11.95.85-.12,1.46-.3,2.31-.42.4,4.12.74,9.27,1.13,13.38-.03,3.68-4.02,8.31-7.9,9.6ZM296.86,79.85c5.83.24,11.71.43,17.54.61,1.61.01,2.48-.89,3.01-2.31,1.24-3.81,2.39-7.47,3.63-11.27-.77-8.27-1.5-16.68-2.28-24.95,2.2-1.28,3.91-2.35,6.29-3.56-1.09-9.26-2.37-18.82-3.46-28.08-7.24.4-14.48.8-21.73,1.2-2.01,11.27-4.02,22.54-6.02,33.81.11,11.27,1.33,23.02,3.01,34.56ZM313.31,31.85c3.04-.93,6.02-1.61,9.06-2.53.2,1.51.4,3.02.6,4.53-1.11,1.77-1.5,3.91-1.82,6.08-1.02.65-2.77,1.21-3.01,2.09-.05,1.9.05,3.8-.19,5.55-.85.09-1.78.18-2.63.27-.33.56-.34,3.26.07,3.27.42.04,1.41.22,1.84.26-1.96,2.17-2.34,2.03-2.57,5.38-.56.72-1.15,1.56-1.57,2.47.24-8.94-.01-18.42.22-27.36ZM301.28,30.28c.01-1.37.78-2.9,1.55-2.69,1.63.34,3.07.88,4.71,1.22-.06,9.63-.01,19.51-.34,29.13-2.49-.09-4.98-.17-7.46-.26.53-9.1,1.02-18.3,1.55-27.41ZM281.11,52.68c-.02-.28-.23-.49-.5-.53-3.19-.34-6.34-.89-9.53-1.22-.27-.03-.47-.23-.51-.49-.09-.69.02-1.29-.06-1.98-.03-.25-.22-.45-.47-.49-3.92-.63-8.23-1.33-12.15-1.97-.17-.03-.33.02-.46.14-.13.12-.2.27-.19.44.01.35.09.78.13,1.13.02.18-.04.35-.18.47-.14.12-.3.17-.48.14-3.15-.54-6.32-.88-9.48-1.41-.18-.03-.34.02-.47.14-.13.12-.2.28-.19.46.45,7.01,1,14.05,1.44,21.07.02.27.22.49.48.53,4.76.69,9.8,1.52,14.57,2.2.17.02.33-.02.45-.14.13-.11.19-.26.19-.43-.01-1.45-.15-3.2-.17-4.63,1.73.31,3.22.64,4.96.95.28,1.45.12,3.21.2,4.63.01.27.21.49.47.53,4.04.67,8.83,1.08,12.92,1.74.18.03.34-.02.47-.14.13-.12.2-.28.18-.46-.46-7.01-1.16-13.69-1.61-20.69ZM282.76,78.03l-34.08-4.27c-.17-.02-.33-.16-.45-.05-.13.12-.19.27-.18.45l.28,4.11c.02.28.22.5.5.53l33.89,4.06c.17.02.32-.03.44-.14.13-.11.19-.26.19-.43l-.1-3.7c0-.29-.21-.53-.5-.56ZM261.94,84c-.56,0-.94.62-.86,1.39.08.77.6,1.4,1.16,1.41.56,0,.94-.62.86-1.39-.08-.77-.6-1.41-1.16-1.41Z"/>
    </g>
  </g>
</svg>